<svg width="123" height="123" viewBox="0 0 123 123" fill="none" xmlns="http://www.w3.org/2000/svg">
<path d="M61.24 8.16838e-07C49.129 -0.00197697 37.2895 3.58767 27.2187 10.3149C17.1479 17.0422 9.29839 26.6049 4.6628 37.7937C0.027204 48.9824 -1.1862 61.2945 1.17606 73.1729C3.53831 85.0513 9.37011 95.9624 17.9339 104.526C26.4977 113.09 37.4087 118.922 49.2871 121.284C61.1655 123.646 73.4776 122.433 84.6664 117.797C95.8551 113.162 105.418 105.312 112.145 95.2413C118.872 85.1706 122.462 73.331 122.46 61.22C122.455 44.9851 116.003 29.4166 104.523 17.9368C93.0434 6.45695 77.475 0.00530202 61.24 8.16838e-07ZM15.88 60.61C15.9498 55.1296 17.0172 49.7078 19.03 44.61C34.2206 45.8651 48.472 52.4731 59.2445 63.2566C70.0169 74.04 76.6105 88.2982 77.85 103.49C72.7502 105.495 67.3293 106.559 61.85 106.63C61.3134 94.6058 56.2994 83.217 47.7932 74.7015C39.287 66.1861 27.9036 61.1597 15.88 60.61ZM18.6 76.79C25.3884 77.8546 31.6625 81.0498 36.5159 85.9139C41.3692 90.7781 44.5505 97.0593 45.6 103.85C39.4064 101.567 33.7835 97.9649 29.1212 93.2923C24.4589 88.6196 20.8688 82.9887 18.6 76.79ZM93.32 93.31L92.57 94.03C89.5962 78.1197 81.8832 63.4798 70.4426 52.0302C59.0019 40.5807 44.368 32.8562 28.46 29.87L29.15 29.14C37.7019 20.8373 49.1771 16.2325 61.0961 16.3206C73.0151 16.4086 84.421 21.1826 92.8492 29.6108C101.277 38.0391 106.051 49.4449 106.139 61.3639C106.228 73.2829 101.623 84.7581 93.32 93.31Z" fill="#74A2D1"/>
</svg>
